<svg xmlns="http://www.w3.org/2000/svg" viewBox="0 0 1200 760" role="img" aria-labelledby="title desc">
  <title id="title">Unit 2 Kahoot review activity</title>
  <desc id="desc">A professional classroom quiz scene with colorful Kahoot-style answer cards, clothing vocabulary, and a teacher screen.</desc>
  <defs>
    <linearGradient id="bg" x1="0" y1="0" x2="1" y2="1">
      <stop offset="0" stop-color="#eef7ff"/>
      <stop offset=".52" stop-color="#f7fbff"/>
      <stop offset="1" stop-color="#e8fff7"/>
    </linearGradient>
    <linearGradient id="screen" x1="0" y1="0" x2="1" y2="1">
      <stop offset="0" stop-color="#12355b"/>
      <stop offset="1" stop-color="#087e8b"/>
    </linearGradient>
    <filter id="shadow" x="-20%" y="-20%" width="140%" height="140%">
      <feDropShadow dx="0" dy="18" stdDeviation="18" flood-color="#0f172a" flood-opacity=".18"/>
    </filter>
  </defs>
  <rect width="1200" height="760" fill="url(#bg)"/>
  <circle cx="1030" cy="95" r="170" fill="#dff6ff" opacity=".75"/>
  <circle cx="120" cy="650" r="190" fill="#dffbea" opacity=".8"/>
  <g filter="url(#shadow)">
    <rect x="120" y="92" width="960" height="560" rx="44" fill="#fff"/>
  </g>
  <rect x="172" y="132" width="856" height="310" rx="28" fill="url(#screen)"/>
  <text x="215" y="190" fill="#9ff7e7" font-family="Inter, Arial, sans-serif" font-size="28" font-weight="800" letter-spacing="3">BASIC ENGLISH COURSE 2</text>
  <text x="215" y="250" fill="#ffffff" font-family="Inter, Arial, sans-serif" font-size="54" font-weight="900">Unit 2 Kahoot Review</text>
  <text x="215" y="304" fill="#d6f7ff" font-family="Inter, Arial, sans-serif" font-size="30" font-weight="700">Shopping · clothes · prices · sizes</text>
  <g transform="translate(215 340)">
    <rect width="142" height="52" rx="18" fill="#fff" opacity=".16"/>
    <text x="24" y="35" fill="#fff" font-family="Inter, Arial, sans-serif" font-size="22" font-weight="900">jacket</text>
    <rect x="162" width="170" height="52" rx="18" fill="#fff" opacity=".16"/>
    <text x="186" y="35" fill="#fff" font-family="Inter, Arial, sans-serif" font-size="22" font-weight="900">this / those</text>
    <rect x="352" width="142" height="52" rx="18" fill="#fff" opacity=".16"/>
    <text x="376" y="35" fill="#fff" font-family="Inter, Arial, sans-serif" font-size="22" font-weight="900">on sale</text>
  </g>
  <g transform="translate(172 478)">
    <rect width="198" height="118" rx="24" fill="#e21b3c"/>
    <path d="M100 28l48 62H52z" fill="#fff" opacity=".95"/>
    <text x="24" y="96" fill="#fff" font-family="Inter, Arial, sans-serif" font-size="22" font-weight="900">A</text>
    <rect x="218" width="198" height="118" rx="24" fill="#1368ce"/>
    <path d="M317 31a38 38 0 1 1 0 76a38 38 0 0 1 0-76z" fill="#fff" opacity=".95"/>
    <text x="242" y="96" fill="#fff" font-family="Inter, Arial, sans-serif" font-size="22" font-weight="900">B</text>
    <rect x="436" width="198" height="118" rx="24" fill="#d89e00"/>
    <path d="M536 30l50 40l-50 40l-50-40z" fill="#fff" opacity=".95"/>
    <text x="460" y="96" fill="#fff" font-family="Inter, Arial, sans-serif" font-size="22" font-weight="900">C</text>
    <rect x="654" width="198" height="118" rx="24" fill="#26890c"/>
    <rect x="724" y="38" width="60" height="60" rx="8" fill="#fff" opacity=".95"/>
    <text x="678" y="96" fill="#fff" font-family="Inter, Arial, sans-serif" font-size="22" font-weight="900">D</text>
  </g>
  <g transform="translate(813 175)" opacity=".95">
    <rect x="0" y="0" width="152" height="190" rx="30" fill="#ffffff"/>
    <path d="M72 38c-24 0-40 17-40 39v81h88V77c0-22-18-39-48-39z" fill="#6ee7b7"/>
    <path d="M55 43c4 18 30 18 36 0" fill="none" stroke="#12355b" stroke-width="8" stroke-linecap="round"/>
    <path d="M32 86h88" stroke="#12355b" stroke-width="8" stroke-linecap="round" opacity=".18"/>
  </g>
  <text x="158" y="706" fill="#42526b" font-family="Inter, Arial, sans-serif" font-size="23" font-weight="800">Teacher-led formative game · English only · Review before writing</text>
</svg>
