<svg xmlns="http://www.w3.org/2000/svg" width="1200" height="675" viewBox="0 0 1200 675" role="img" aria-labelledby="title desc">
  <title id="title">Family photo reading illustration</title>
  <desc id="desc">A phone showing a warm family photo with five simple portrait figures.</desc>
  <defs>
    <linearGradient id="bg" x1="0" x2="1" y1="0" y2="1">
      <stop offset="0" stop-color="#fff1f2"/>
      <stop offset="1" stop-color="#eef2ff"/>
    </linearGradient>
  </defs>
  <rect width="1200" height="675" fill="url(#bg)"/>
  <rect x="358" y="70" width="484" height="550" rx="58" fill="#0f172a"/>
  <rect x="392" y="120" width="416" height="440" rx="34" fill="#ffffff"/>
  <rect x="430" y="155" width="340" height="235" rx="28" fill="#dbeafe"/>
  <circle cx="505" cy="255" r="48" fill="#f59e0b"/>
  <circle cx="600" cy="235" r="56" fill="#d9433f"/>
  <circle cx="700" cy="262" r="46" fill="#2563eb"/>
  <path d="M445 350c20-50 100-50 120 0z" fill="#f59e0b"/>
  <path d="M530 350c24-58 116-58 140 0z" fill="#d9433f"/>
  <path d="M645 350c20-50 90-50 110 0z" fill="#2563eb"/>
  <circle cx="525" cy="447" r="38" fill="#10b981"/>
  <circle cx="675" cy="447" r="38" fill="#8b5cf6"/>
  <path d="M480 505c20-45 70-45 90 0z" fill="#10b981"/>
  <path d="M630 505c20-45 70-45 90 0z" fill="#8b5cf6"/>
  <rect x="470" y="410" width="260" height="18" rx="9" fill="#e2e8f0"/>
  <rect x="470" y="532" width="260" height="18" rx="9" fill="#e2e8f0"/>
  <circle cx="600" cy="590" r="18" fill="#334155"/>
  <text x="412" y="95" font-family="Arial, sans-serif" font-size="34" font-weight="700" fill="#ffffff">MY FAMILY</text>
</svg>
