<?xml version="1.0" encoding="UTF-8"?>
<svg xmlns="http://www.w3.org/2000/svg" viewBox="0 0 1600 900" role="img" aria-labelledby="undefined-title">
  <title id="undefined-title">Reported speech and concordance of tenses</title>
  
  <defs>
    <filter id="shadow" x="-20%" y="-20%" width="140%" height="140%">
      <feDropShadow dx="0" dy="18" stdDeviation="18" flood-color="#14213d" flood-opacity=".22"/>
    </filter>
    <filter id="soft" x="-20%" y="-20%" width="140%" height="140%">
      <feGaussianBlur stdDeviation="18"/>
    </filter>
    <linearGradient id="paper" x1="0" x2="1" y1="0" y2="1">
      <stop offset="0" stop-color="#fffaf1"/>
      <stop offset="1" stop-color="#f0f7ff"/>
    </linearGradient>
  </defs>
  <rect width="1600" height="900" fill="#102a43"/>
  <path d="M0 0H1600V900H0Z" fill="url(#bg-undefined)"/>
  <defs>
    <linearGradient id="bg-undefined" x1="0" x2="1" y1="0" y2="1">
      <stop offset="0" stop-color="#102a43"/>
      <stop offset=".55" stop-color="#2f6690"/>
      <stop offset="1" stop-color="#f6c453"/>
    </linearGradient>
  </defs>
  <circle cx="1320" cy="120" r="190" fill="#ffffff" opacity=".16" filter="url(#soft)"/>
  <circle cx="220" cy="780" r="230" fill="#ffffff" opacity=".12" filter="url(#soft)"/>
  <g opacity=".16" stroke="#ffffff" stroke-width="2">
    <path d="M120 80V820"/><path d="M270 80V820"/><path d="M420 80V820"/><path d="M570 80V820"/><path d="M720 80V820"/><path d="M870 80V820"/><path d="M1020 80V820"/><path d="M1170 80V820"/><path d="M1320 80V820"/><path d="M1470 80V820"/>
    <path d="M80 150H1520"/><path d="M80 295H1520"/><path d="M80 440H1520"/><path d="M80 585H1520"/><path d="M80 730H1520"/>
  </g>
  <rect x="118" y="96" width="1364" height="708" rx="44" fill="#ffffff" opacity=".9" filter="url(#shadow)"/>
  <rect x="158" y="136" width="1284" height="628" rx="34" fill="url(#paper)"/>
  
      <rect x="396" y="246" width="808" height="348" rx="42" fill="#102a43"/>
      
  <g transform="translate(470 420)" fill="none" stroke="#62b6cb" stroke-width="10" stroke-linecap="round">
    <path d="M0 -14V14"/><path d="M28 -57.19862329556683V57.19862329556683"/><path d="M56 -71.02072660101695V71.02072660101695"/><path d="M84 -46.066813750006474V46.066813750006474"/><path d="M112 -28.693613366542795V28.693613366542795"/><path d="M140 -65.46188809814356V65.46188809814356"/><path d="M168 -67.23434423384461V67.23434423384461"/><path d="M196 -32.80565185501008V32.80565185501008"/><path d="M224 -42.41151769046997V42.41151769046997"/><path d="M252 -70.30789750445649V70.30789750445649"/><path d="M280 -59.91300897585069V59.91300897585069"/><path d="M308 -18.29572669739825V18.29572669739825"/><path d="M336 -54.242794536628686V54.242794536628686"/><path d="M364 -71.41485897237261V71.41485897237261"/><path d="M392 -49.54288395362941V49.54288395362941"/><path d="M420 -24.499450241290205V24.499450241290205"/><path d="M448 -63.401804354248505V63.401804354248505"/><path d="M476 -68.7092662589325V68.7092662589325"/><path d="M504 -36.812582955010285V36.812582955010285"/><path d="M532 -38.59742573011287V38.59742573011287"/><path d="M560 -69.28035578307453V69.28035578307453"/><path d="M588 -62.370780500596304V62.370780500596304"/><path d="M616 -22.56744398431643V22.56744398431643"/><path d="M644 -51.06204323467127V51.06204323467127"/>
  </g>
      <circle cx="800" cy="420" r="74" fill="#ffffff" opacity=".1"/>
      <path d="M776 374h48v92h-48z" fill="#ffffff" opacity=".95"/>
      <path d="M734 472c34 52 100 52 132 0" fill="none" stroke="#ffffff" stroke-width="16" stroke-linecap="round"/>
      <path d="M492 252c-92-84-54-172 62-162h230c110 0 146 112 54 166" fill="#ffffff" opacity=".88"/>
      <path d="M1080 238c100-76 172-22 160 70v104c0 80-82 118-146 60" fill="#ffffff" opacity=".82"/>
      
  <g transform="translate(350 684)">
    <circle cx="0" cy="-82" r="42" fill="#c78355"/>
    <path d="M-35-94c16-42 78-35 88 4 0 0-38-20-83 6z" fill="#27364a"/>
    <path d="M-72 82c12-88 38-138 76-138 40 0 66 52 78 138z" fill="#2f6690"/>
    <path d="M-58 82h128" stroke="#1f2937" stroke-width="18" stroke-linecap="round" opacity=".28"/>
  </g>
      
  <g transform="translate(1250 684)">
    <circle cx="0" cy="-82" r="42" fill="#9f6647"/>
    <path d="M-35-94c16-42 78-35 88 4 0 0-38-20-83 6z" fill="#27364a"/>
    <path d="M-72 82c12-88 38-138 76-138 40 0 66 52 78 138z" fill="#f6c453"/>
    <path d="M-58 82h128" stroke="#1f2937" stroke-width="18" stroke-linecap="round" opacity=".28"/>
  </g>
    
</svg>